PathFileType	4	(X/Y/Z)	C:\Users\86182\Documents\cortex\Trimmed_M4_L2.trc
DataRate	CameraRate	NumFrames	NumMarkers	Units	OrigDataRate	OrigDataStartFrame	OrigNumFrames
100.00	100.00	      84	2	mm	100.00	918	      1101
Frame#	Time	gripper			box			
		X1	Y1	Z1	X2	Y2	Z2	

918	9.170	276.24286	151.26147	292.54910	276.74576	149.43002	156.50916	
919	9.180	276.24319	151.26158	292.54938	276.74475	149.42915	156.50864	
920	9.190	276.24326	151.26161	292.54944	276.74487	149.42767	156.50726	
921	9.200	276.24319	151.26160	292.54938	276.74567	149.42625	156.50554	
922	9.210	276.24329	151.26163	292.54947	276.74655	149.42525	156.50388	
923	9.220	276.24368	151.26175	292.54977	276.74744	149.42441	156.50240	
924	9.230	276.24423	151.26193	292.55023	276.74881	149.42316	156.50101	
925	9.240	276.24475	151.26210	292.55066	276.75107	149.42131	156.49973	
926	9.250	276.24496	151.26218	292.55084	276.75409	149.41925	156.49899	
927	9.260	276.24478	151.26212	292.55066	276.75723	149.41748	156.49921	
928	9.270	276.24411	151.26189	292.55011	276.75998	149.41600	156.50027	
929	9.280	276.24298	151.26152	292.54919	276.76212	149.41447	156.50168	
930	9.290	276.24161	151.26106	292.54807	276.76382	149.41261	156.50278	
931	9.300	276.24033	151.26064	292.54700	276.76538	149.41052	156.50313	
932	9.310	276.23950	151.26036	292.54633	276.76691	149.40855	156.50253	
933	9.320	276.23926	151.26028	292.54614	276.76843	149.40704	156.50099	
934	9.330	276.23944	151.26035	292.54626	276.77008	149.40602	156.49866	
935	9.340	276.23972	151.26044	292.54651	276.77203	149.40532	156.49580	
936	9.350	276.23987	151.26048	292.54663	276.77435	149.40472	156.49290	
937	9.360	276.23987	151.26048	292.54663	276.77686	149.40407	156.49046	
938	9.370	276.23975	151.26044	292.54654	276.77930	149.40334	156.48880	
939	9.380	276.23956	151.26039	292.54639	276.78113	149.40269	156.48813	
940	9.390	276.23941	151.26033	292.54626	276.78168	149.40239	156.48851	
941	9.400	276.23926	151.26028	292.54614	276.78085	149.40240	156.48981	
942	9.410	276.23923	151.26027	292.54611	276.77914	149.40245	156.49144	
943	9.420	276.23941	151.26033	292.54626	276.77722	149.40231	156.49272	
944	9.430	276.23984	151.26047	292.54663	276.77521	149.40196	156.49332	
945	9.440	276.24026	151.26062	292.54700	276.77313	149.40152	156.49329	
946	9.450	276.24045	151.26068	292.54712	276.77100	149.40088	156.49272	
947	9.460	276.24030	151.26062	292.54700	276.76901	149.39984	156.49158	
948	9.470	276.23987	151.26048	292.54663	276.76740	149.39842	156.49001	
949	9.480	276.23926	151.26028	292.54614	276.76599	149.39705	156.48843	
950	9.490	276.23865	151.26007	292.54562	276.76437	149.39624	156.48729	
951	9.500	276.23807	151.25989	292.54517	276.76254	149.39629	156.48663	
952	9.510	276.23761	151.25974	292.54480	276.76083	149.39708	156.48616	
953	9.520	276.23734	151.25964	292.54456	276.75934	149.39847	156.48561	
954	9.530	276.23724	151.25961	292.54446	276.75757	149.40056	156.48523	
955	9.540	276.23743	151.25967	292.54462	276.75519	149.40341	156.48550	
956	9.550	276.23801	151.25986	292.54510	276.75241	149.40665	156.48676	
957	9.560	276.23898	151.26019	292.54590	276.74982	149.40956	156.48892	
958	9.570	276.24020	151.26060	292.54691	276.74777	149.41153	156.49158	
959	9.580	276.24136	151.26099	292.54785	276.74670	149.41211	156.49419	
960	9.590	276.24210	151.26123	292.54849	276.74689	149.41144	156.49631	
961	9.600	276.24237	151.26131	292.54871	276.74841	149.41008	156.49774	
962	9.610	276.24228	151.26128	292.54861	276.75116	149.40875	156.49857	
963	9.620	276.24200	151.26118	292.54840	276.75497	149.40790	156.49899	
964	9.630	276.24164	151.26106	292.54810	276.75961	149.40759	156.49899	
965	9.640	276.24121	151.26093	292.54773	276.76456	149.40770	156.49857	
966	9.650	276.24078	151.26079	292.54736	276.76907	149.40796	156.49794	
967	9.660	276.24036	151.26064	292.54700	276.77283	149.40807	156.49741	
968	9.670	276.24002	151.26053	292.54675	276.77600	149.40775	156.49692	
969	9.680	276.23981	151.26047	292.54657	276.77881	149.40691	156.49644	
970	9.690	276.23975	151.26044	292.54651	276.78122	149.40579	156.49603	
971	9.700	276.23975	151.26045	292.54654	276.78293	149.40477	156.49582	
972	9.710	276.23990	151.26050	292.54666	276.78391	149.40419	156.49585	
973	9.720	276.24023	151.26060	292.54691	276.78391	149.40425	156.49619	
974	9.730	276.24075	151.26079	292.54736	276.78262	149.40501	156.49672	
975	9.740	276.24139	151.26099	292.54788	276.78000	149.40646	156.49730	
976	9.750	276.24194	151.26118	292.54834	276.77628	149.40854	156.49786	
977	9.760	276.24234	151.26131	292.54868	276.77185	149.41113	156.49849	
978	9.770	276.24258	151.26140	292.54889	276.76767	149.41365	156.49915	
979	9.780	276.24271	151.26143	292.54898	276.76483	149.41527	156.49956	
980	9.790	276.24265	151.26141	292.54892	276.76392	149.41557	156.49933	
981	9.800	276.24234	151.26131	292.54868	276.76456	149.41499	156.49838	
982	9.810	276.24188	151.26115	292.54828	276.76569	149.41420	156.49704	
983	9.820	276.24149	151.26102	292.54797	276.76651	149.41364	156.49579	
984	9.830	276.24133	151.26097	292.54785	276.76715	149.41324	156.49492	
985	9.840	276.24146	151.26102	292.54797	276.76807	149.41275	156.49446	
986	9.850	276.24167	151.26109	292.54813	276.76950	149.41185	156.49423	
987	9.860	276.24182	151.26114	292.54825	276.77148	149.41040	156.49394	
988	9.870	276.24191	151.26117	292.54834	276.77411	149.40858	156.49353	
989	9.880	276.24210	151.26123	292.54849	276.77719	149.40681	156.49315	
990	9.890	276.24249	151.26137	292.54880	276.78061	149.40541	156.49298	
991	9.900	276.24313	151.26157	292.54932	276.78424	149.40454	156.49310	
992	9.910	276.24393	151.26184	292.54999	276.78790	149.40428	156.49339	
993	9.920	276.24478	151.26212	292.55069	276.79108	149.40457	156.49353	
994	9.930	276.24551	151.26236	292.55127	276.79333	149.40533	156.49319	
995	9.940	276.24603	151.26253	292.55170	276.79431	149.40646	156.49226	
996	9.950	276.24631	151.26263	292.55194	276.79388	149.40787	156.49091	
997	9.960	276.24637	151.26265	292.55200	276.79218	149.40936	156.48943	
998	9.970	276.24628	151.26262	292.55194	276.78964	149.41077	156.48817	
999	9.980	276.24606	151.26254	292.55176	276.78708	149.41194	156.48746	
1000	9.990	276.24576	151.26245	292.55151	276.78510	149.41293	156.48749	
1001	10.000	276.24536	151.26231	292.55118	276.78387	149.41377	156.48825	
